<svg width="448" height="386" viewBox="0 0 448 386" fill="none" xmlns="http://www.w3.org/2000/svg">
<g clip-path="url(#clip0_138_8)">
<path d="M438.6 170.4C451.1 182.9 451.1 203.2 438.6 215.7L278.6 375.7C266.1 388.2 245.8 388.2 233.3 375.7C220.8 363.2 220.8 342.9 233.3 330.4L338.8 225H32C14.3 225 -3.05176e-05 210.7 -3.05176e-05 193C-3.05176e-05 175.3 14.3 161 32 161H338.7L233.4 55.6001C220.9 43.1 220.9 22.8001 233.4 10.3C245.9 -2.19995 266.2 -2.19995 278.7 10.3L438.7 170.3L438.6 170.4Z" fill="black"/>
</g>
<defs>
<clipPath id="clip0_138_8">
<rect width="448" height="386" fill="white" transform="matrix(-1 0 0 1 448 0)"/>
</clipPath>
</defs>
</svg>
