<?xml version="1.0" encoding="UTF-8"?>
<svg xmlns="http://www.w3.org/2000/svg" id="a" viewBox="0 0 1939.15 411.17">
  <path d="m230.42,223.77c-10.33-8.16-21.7-13.44-34.17-16.1-6.03-1.29-12.15-2.56-18.39-2.58-18.83-.03-37.66.05-56.49-.07-3.07-.02-4.23.52-4.22,3.98.12,55.66.11,111.31.02,166.97,0,3.12.6,4.23,4.02,4.2,18.99-.18,38.02.5,56.98-.27,16.61-.67,32.96-3.44,46.51-14.57,2.18-1.79,4.82-2.11,7.69-2.38,10.76-1.01,21.52-.85,32.28-.84,2.17,0,3.99-1.32,6.26-1.11,2.46.22,3.08,1.24,1.78,3.04-9.67,13.31-20.64,25.25-35.48,33.06-10.94,5.76-22.37,9.69-34.51,12.38-5.26,1.17-10.29,1.51-15.42,1.53-33.83.13-67.65,0-101.48.16-3.69.02-4.65-.81-4.65-4.59.12-104.32.12-208.63-.02-312.94,0-3.6,1.24-5.32,4.31-5.45,9.2-.4,18.24-2.51,27.53-2.23,3.48.1,4.39.88,4.37,4.4-.16,25.99.01,51.99-.19,77.98-.03,4,1.1,4.88,4.93,4.83,16.16-.21,32.34.37,48.49-.22,15.27-.56,30.6-2.28,44.18-10.15,13.26-7.67,20.78-19.87,23.88-34.61,4.84-23.04,5.01-45.8-6.42-67.31-8.14-15.33-21.05-24.27-37.96-27.84-17.91-3.77-36.01-1.22-54.01-1.92-6.49-.25-13,.11-19.49-.11-2.9-.09-3.64.88-3.55,3.65.14,4.29,1.33,9.59-.69,12.61-1.89,2.83-7.71,1.16-11.68,1.46-6.88.53-13.79,1.45-20.74,1.4-2.1-.02-2.89-.52-2.88-2.78.09-14.83.14-29.66-.02-44.49-.04-3.34,1.9-2.78,3.85-2.78h58.99c14.5,0,29,.23,43.49-.06,19.86-.39,37.63,5.7,53.86,16.69,15.88,10.74,25.34,25.91,31.06,44.08,4.39,13.95,6.22,28.08,5.74,42.5-.67,20.06-4.74,39.45-16.25,56.25-8.24,12.03-19.18,21.45-34.18,26.93,13.45,4.12,24.12,11.3,33.36,20.19,9.91,9.54,17.06,21.21,22.2,34.06,5,12.51,6.92,25.5,8.27,38.87,1.26,12.49-.67,24.57-1.38,36.83-.15,2.51-1.03,4.43-4.44,5.02-6.43,1.1-12.86,2.02-19.34,2.6-2.65.24-5.34-.14-7.99.08-7.32.6-7.79.54-6.02-6.38,2.14-8.36,2.58-16.99,2.57-25.31-.04-22.19-3.68-43.76-17.98-61.97-1.84-2.34-4.18-4.29-6.53-6.69h-.05Z" style="fill:#01455e;"></path>
  <path d="m180.23,49.08c12,0,23.51.35,34.99-.15,5.34-.24,8.28,2.25,10.98,5.98,6.05,8.37,9.74,17.74,11.99,28.17h-5.62c-38.33,0-76.67-.43-115,.21-15.24.26-30.63,1.61-45.4,6.31-13.33,4.25-22.06,12.96-26.44,26.34-3.48,10.63-4.81,21.53-5.53,32.61-2.04,31.4-1.01,62.85-.76,94.27.13,16.77,1.09,33.73,5.88,50.02,4.29,14.58,14.34,23.93,28.84,28.05,4.11,1.16,5.35,2.64,5.17,6.8-.36,8.48-.21,17-.05,25.49.06,2.85-.36,4.44-3.71,3.92-17.5-2.72-34.11-7.31-47.67-19.75-13.83-12.69-20.81-28.45-23.9-46.78-2.68-15.88-3.96-31.71-3.85-47.78.22-31.5-.65-63.02.33-94.49.6-19.26,3.04-38.75,11.92-56.28,8.86-17.5,23.93-28.15,42.51-33.96,15.39-4.82,31.25-6.07,47.25-7.22,10.29-.73,20.59.19,30.78-.88,15.6-1.64,31.2-.38,47.29-.88h0Z" style="fill:#01455e;"></path>
  <path d="m308.84,315.85c10.7-6.9,13.21-17.43,14.44-28.72,1.1-10.08.97-20.17.91-30.27-.01-2.17.63-2.85,2.82-2.82,10.5.1,20.99.06,31.49.03,2.05,0,3.8.32,3.71,2.85-.73,19.81.8,39.96-5.59,59.09-6.28,18.78-19.58,31.04-38.54,37.06-12.53,3.97-25.38,5.69-38.48,6.04-14.09.37-28.2.51-42.25,1.15-38.09,1.75-76.17.14-114.25.9-3.59.08-3.98-1.31-3.92-4.28.16-8.5.24-17-.03-25.49-.11-3.48.77-4.58,4.34-4.37,31.56,1.79,63.16,1.26,94.74.86,12.91-.17,25.88-.07,38.75-.98,14.22-.99,28.62-1.51,42.28-6.69,3.2-1.21,6.01-3.14,9.58-4.36h0Z" style="fill:#01455e;"></path>
  <path d="m1730.23,160.09c0,23.83.14,47.16-.12,70.49-.05,4.64,1.82,7.19,5.75,8.26,1.71.47,2.78,1.69,4.28,2.18,2.38.79,2.13,2.64,2.08,4.45-.06,1.87-1.18,2.61-2.93,2.65-.16,0-.33.02-.49.05-9.82,1.5-19.62,1.48-29.45,0-2.28-.34-3.16-1.27-3.16-3.53,0-1.89-.02-3.69,2.24-4.21,8.31-1.9,9.08-7.55,8.98-15.06-.42-31.16-.23-62.32-.11-93.49.01-3.55-.62-6.02-4.43-6.94-1.22-.3-2.24-1.33-3.44-1.82-2.51-1.01-3.37-2.77-3.25-5.44.14-2.96,2.81-3.02,4.26-3.16,7.54-.72,15.17-1.22,22.6.9,3.75,1.07,4.55,4.95,6.1,7.78,10.25,18.72,20.16,37.64,30.3,56.42,6.66,12.34,13.51,24.56,20.79,37.79v-5.55c0-26.83-.08-53.66.08-80.49.03-4.25-.73-7.02-5.48-7.47-1.24-.12-2.51-.72-3.59-1.39-1.7-1.04-2.22-2.7-2.04-4.71.2-2.18,1.48-2.5,3.35-2.79,9.83-1.51,19.63-1.48,29.47,0,1.91.29,3.18.73,3.21,2.89.03,1.87.16,3.74-2.33,4.22-8.95,1.74-8.88,8.07-8.81,15.43.32,33.49.14,66.99.14,100.49,0,9.53-5.44,13.4-14.87,10.69-3.59-1.04-5.87-3.02-7.69-6.54-12.64-24.43-25.56-48.72-38.44-73.02-4.01-7.55-8.19-15.01-13-23.82v14.73h0Z" style="fill:#01455e;"></path>
  <path d="m654.82,237.14c2.87,1.24,5.5,2.02,7.94,3.19,1.92.93,2.71,2.68,2.51,4.96-.22,2.56-1.84,2.58-3.79,2.86-10.84,1.59-21.66,1.33-32.5.18-2.27-.24-4.38-1.08-4.65-3.57-.25-2.29,1.95-4.13,3.47-4.36,9.76-1.52,8.59-8.56,8.48-15.41-.17-11.33-.16-22.67.02-34,.06-3.57-.85-5.03-4.73-4.99-17,.18-34,.14-51,.03-3.21-.02-4.43.97-4.4,4.29.13,14.16.09,28.33.03,42.49-.01,2.85.79,4.72,3.85,5.35,1.39.29,2.57,1.5,3.95,1.84,3.12.75,3.61,2.85,3.2,5.5-.46,2.92-2.93,3.47-5.15,3.51-9.16.16-18.33.12-27.5.02-1.57-.02-3.24-.49-4.66-1.16-1.47-.69-2.73-1.79-2.69-3.8.04-1.79.84-2.75,2.51-3.14,9.1-2.13,9.82-8.46,9.7-16.6-.46-30.66-.26-61.33-.1-91.99.02-4.6-1.13-7.67-5.91-8.65-.29-.06-.52-.42-.81-.56-2.46-1.17-5.94-1.84-5.23-5.46.65-3.29,4.37-3.33,6.71-3.43,9.15-.38,18.33-.36,27.49.02,1.9.08,5.17-.13,5.69,3.42.52,3.51-1.62,4.71-4.35,5.42-5.39,1.42-7.1,4.6-6.84,10.3.54,11.98.4,24,.04,35.99-.13,4.23,1.67,5.63,5.18,5.65,17,.08,34,.07,51,0,2.56,0,4.05-1.11,4.02-4.24-.17-13.83-.18-27.66.02-41.49.04-2.97-1.34-4.46-3.63-4.99-2.29-.52-4.23-1.65-6.21-2.67-1.22-.63-2.68-1.75-2.17-3.56.41-1.48,1.51-2.78,3.04-2.92,2.6-.23,4.99-1.35,7.72-1.15,9.06.65,18.2-.96,27.24,1,1.69.37,2.87.81,2.91,2.67.04,1.58.48,3.41-1.92,3.87-.41.08-.68.93-1.08.99-8.1,1.21-8.14,6.83-8.09,13.33.23,31.83.1,63.66.12,95.5,0,1.82.17,3.64.58,5.76h-.01Z" style="fill:#01455e;"></path>
  <path d="m674.58,288.91c-20.69-.28-40.95-.44-61.21-.69-15.61-.19-31.23.41-47.22-.76-.39-.46-.4-.68-.38-1.23,43.52-.59,87.01-.89,130.49-1.08,45.33-.19,90.66-.17,135.98-.41,237.96-1.27,475.93-.64,713.9-.34,68.99.09,137.97.58,206.96.95,20.16.1,40.32.41,60.47.66,1.59.02,3.3-.45,4.74,1.97-34.7.21-69.41.42-104.55.74-4.52.59-8.6.28-13.12.3-91.77.18-183.1.38-274.88.7-15.49.64-30.54.24-46.07.31-57.57,0-114.66.04-171.76.03-65.91-.02-131.83-.09-198.21-.11-15.18.19-29.9.19-45.1-.04-15.3-.21-30.12-.42-44.94-.46-76.83-.2-153.66-.36-230.96-.5-4.88.18-9.29.19-14.14-.04h0Z" style="fill:#8a8a8a;"></path>
  <path d="m1655.2,168.02c1.15-3.16,2.83-5.64,6.14-4.78,3.22.84,2.94,3.88,2.91,6.59-.07,7.33-.09,14.67.02,22,.04,2.92-.83,5.41-3.68,6.08-2.96.7-4.23-1.94-5.38-4.14-.67-1.27-1.17-2.64-1.68-3.98-.99-2.59-2.61-3.86-5.59-3.77-6.16.2-12.33.15-18.5.02-2.85-.06-4.28.69-4.26,3.9.11,14.33.13,28.66-.02,42.99-.03,2.82,1.05,3.21,3.48,3.2,16.49-.09,32.99-.16,49.48.04,3.63.04,4-2.41,5.38-4.58,1.6-2.5,1.75-7.46,6.24-6.17,3.85,1.11,3.44,5.38,3.41,8.65-.03,3.09.11,6.16-.45,9.33-.79,4.49-3.82,5.56-7.07,5.58-27.66.17-55.32.16-82.98,0-2.39-.02-5.88.19-6.41-3.74-.53-3.9,2.3-5.32,5.17-6.04,4.47-1.13,6-3.27,5.96-8.15-.27-33.32-.2-66.65-.06-99.97.02-4.08-.75-6.71-5.31-7.09-1.24-.1-2.51-.69-3.61-1.34-1.93-1.13-2.46-2.97-2.16-5.14.26-1.87,1.56-2.03,3.09-2.52,2.75-.89,5.48-.9,8.26-.9,24.5,0,48.99-.05,73.48.02,11.62.04,12.36,1.55,12.16,12.31-.05,2.59.19,5.15-.83,7.76-.69,1.8-1.19,2.93-3.25,2.93-1.73,0-3.41.02-3.91-2.11-2.05-8.66-8.2-9.34-15.78-9.05-13.47.51-26.98.25-40.48.06-3.17-.05-3.85.89-3.81,3.9.16,13.33.27,26.66-.05,39.99-.1,3.87,1.84,4.98,4.67,5.09,6.33.26,12.67.24,18.99.03,4-.13,4.75-3.93,6.43-6.99h0Z" style="fill:#01455e;"></path>
  <path d="m909.26,118.99c1.11-4.44,4.67-4.81,7.79-4.83,27.16-.14,54.33-.15,81.49-.03,6.29.03,7.69,1.82,7.69,8.2v10.5c0,1.83.28,3.89-2.31,4.19-2.26.27-4.84.61-5.58-2.42-1.93-7.98-7.33-8.99-14.61-8.68-13.47.57-26.99.3-40.49.07-4.02-.06-5.16,1.23-5.09,5.16.22,12.66.24,25.33,0,38-.09,4.49,2.12,5.85,5.9,5.91,5.5.08,11-.11,16.5.07,3.58.11,5.81-1.15,6.97-4.64.7-2.11,1.72-4.19,2.98-6.01,1.64-2.37,6.14-1.74,6.65,1,1.73,9.27,1.68,18.61.29,27.95-.35,2.34-1.14,4.32-3.65,4.56-2.42.24-4.23-1.78-4.59-3.61-1.8-9.14-8.32-8.87-15.28-8.35-3.65.27-7.34.25-10.99,0-3.55-.25-4.68,1.47-4.68,4.6,0,14.16.06,28.33-.05,42.49-.02,2.5.85,3.03,3.15,3.01,16.66-.08,33.33-.13,50,.03,3.72.03,4.42-2.65,5.93-4.92,1.56-2.34,1.28-6.99,5.75-6.01,4.58,1,3.04,5.16,3.21,8.27.12,2.32.02,4.66.02,6.99,0,6.88-1.64,8.57-8.74,8.58-18.83.05-37.67.02-56.5.02h-22c-1,0-2.07.22-2.99-.05-2.56-.76-6.12-.75-6.59-4.03-.43-3,2.5-4.59,4.91-5.4,5.67-1.9,7.16-5.34,7.09-11.36-.38-32.16-.26-64.33-.09-96.49.03-4.46-1.65-6.62-5.71-7.73-2.61-.71-5.25-1.7-6.35-5.03h-.03Z" style="fill:#01455e;"></path>
  <path d="m707.23,158.08c0,4.16.4,7.88-.11,11.48-.59,4.15,1.77,5.32,4.85,5.44,6.49.24,13,.19,19.49,0,2.55-.07,3.78-2.15,4.79-4.33,1.49-3.22,1.87-8.4,6.86-7.36,4.98,1.03,2.93,5.95,3.05,9.3.24,6.32.06,12.66.07,18.99,0,2.71-.17,5.65-3.3,6.35-3.66.82-4.91-2.4-5.59-4.99-1.35-5.18-3.86-7.65-9.64-7.02-5.43.6-10.99.25-16.48.08-3.08-.09-4.07,1.13-4.05,4.12.1,14.17.09,28.33,0,42.49-.02,2.4.32,3.53,3.17,3.51,16.66-.14,33.33-.1,49.99-.04,2.05,0,3.4-.45,4.16-2.57.65-1.82,1.89-3.41,2.66-5.19.96-2.19,2.35-3.78,4.86-3.18,2.45.57,3.05,2.83,3.15,4.97.17,3.66-.03,7.33.06,10.99.15,5.97-1.96,7.77-7.53,7.83-27.33.27-54.66.13-81.98.08-1.41,0-2.82-.6-4.21-.98-1.71-.47-3.12-1.54-3.18-3.32-.06-1.56.54-3.12,2.34-3.82.58-.22.96-1.16,1.51-1.24,8.47-1.26,8.19-7.22,8.15-13.81-.22-31.16-.19-62.32,0-93.48.03-4.74-1.28-7.5-6.07-8.4-1.38-.26-2.65-1.2-3.92-1.92-1.54-.88-2.34-2.45-1.96-4.02.33-1.38.79-2.87,3.08-3.12,2.4-.25,4.76-.88,7.24-.88,25.16.05,50.32.03,75.48.03,1.17,0,2.35-.12,3.5.04,6.5.9,7.57,2.16,7.55,8.88,0,3.49.2,7.03-.34,10.44-.18,1.13.23,3.96-2.81,3.69-2.15-.19-4.34.24-5.09-2.65-1.93-7.47-6.88-8.96-14.2-8.6-13.63.69-27.32.29-40.98.14-3.46-.04-4.71,1.02-4.64,4.56.2,9,.07,18,.07,27.5h0Z" style="fill:#01455e;"></path>
  <path d="m321.23,143.99c-.05-9.86-.07-19.15-1.84-28.48-2.86-15.11-12.8-22.54-26.43-26.29-3.69-1.02-7.41-2.66-11.44-2.13-3.26.42-3.02-2.86-3.07-3.97-.45-10.52-3.32-20.44-6.86-30.22-.84-2.31-.15-3.06,2.2-2.7,8.66,1.32,17.39,2.25,25.97,3.95,19.4,3.86,36.27,12.11,47.35,29.39,5.61,8.74,7.3,18.81,9.17,28.83,1.99,10.68,1.2,21.58,2.91,32.27.54,3.39.35,5.82-4.56,5.57-9.3-.46-18.65-.43-27.95,0-4.74.21-6.19-1.38-5.45-6.22h0Z" style="fill:#01455e;"></path>
  <path d="m819.26,136.99c7,20.33,13.96,40.25,20.95,60.16,2.07,5.89,4.18,11.76,6.27,17.64,3.79-11.37,7.47-22.5,11.2-33.62,5.85-17.41,11.58-34.86,17.73-52.16,1.11-3.12.35-4.02-2.16-4.95-1.52-.57-2.97-1.31-4.41-2.05-1.84-.93-1.67-2.67-1.59-4.33.07-1.57.9-2.32,2.44-2.6,9.49-1.76,18.99-1.41,28.45.09,2.57.41,3.37,5.64.93,6.29-13.86,3.74-13.36,16.46-16.74,26.42-10.67,31.43-20.89,63.02-31.14,94.59-1.13,3.47-2.96,6.36-6.42,6.26-3.49-.1-6.15-2.79-7.4-6.27-3.42-9.55-6.72-19.14-10.14-28.69-10.04-28.05-20.15-56.07-30.12-84.15-1.58-4.46-5.84-4.67-9.06-6.6-1.34-.8-3.5-.91-3.71-2.84-.24-2.19-.88-4.69,2.82-5.15,12-1.5,23.96-1.55,35.95.01,1.68.22,2.97.59,3.08,2.47.1,1.79.14,3.3-1.82,4.67-2.75,1.92-7.96.87-8.33,4.91-.28,3.04,2.03,6.32,3.21,9.9h0Z" style="fill:#01455e;"></path>
  <path d="m1030.99,172.34c-10.32-10.14-12.04-22.47-8.5-35.11,3.34-11.97,12.44-19.35,24.55-22.06,14.54-3.25,28.46-.6,41.75,5.89,2.88,1.41,1.76,4.39,2.14,6.33.84,4.28.35,8.81,1.23,13.22.43,2.19.22,4.82-2.65,5.4-3.28.66-6.64.25-7.17-3.87-1.03-7.99-6.57-11.53-13.06-14.6-8.96-4.24-22.36-1.32-27.34,6.27-6.32,9.65-4.36,20.07,4.42,28.06,8.52,7.74,19.36,10.94,29.07,16.34,9.48,5.27,18.53,11.62,21.3,22.97,5.18,21.2-4.11,44.16-30.8,48.08-15.41,2.27-29.16-2.27-43.14-7.12-2.91-1.01-2.18-3.97-2.24-5.2-.26-5.27-.94-10.49-1.29-15.74-.14-2.1-.11-4.54,2.56-5.04,2.53-.47,4.88.39,6.36,2.73.68,1.08,1.46,2.24,1.69,3.46,2.02,10.93,11.29,12.73,19.6,14.43,5.41,1.11,11.46,1.18,17.15-.66,7.81-2.52,11.64-8.22,13.63-15.76,3.56-13.4-4.67-20.93-14.4-27.42-8.66-5.77-19.2-7.93-27.23-14.78-2.34-1.99-4.91-3.72-7.63-5.82h0Z" style="fill:#01455e;"></path>
  <path d="m1582.21,218.48c1.98,7.42.64,14.57,1.01,21.64.06,1.05-.3,1.52-1.48,2.03-20.36,8.91-40.89,10.65-61.38.87-14.57-6.95-21.55-19.76-25.17-34.9-2.74-11.46-3.65-23.1-2.83-34.75.86-12.28,2.64-24.52,8.9-35.54,6.84-12.06,17.29-19.08,30.65-22.03,16.42-3.61,32.44-2.65,47.9,4.43,2.53,1.16,3.81,2.69,3.47,5.67-.65,5.71.9,11.53-.94,17.24-.51,1.57-.81,2.85-2.69,2.93s-3.54-.46-4.42-2.22c-.94-1.88-1.88-3.79-2.46-5.79-2.7-9.3-10.65-12.63-18.07-12.94-20.55-.86-34.28,10.29-40.39,28.68-6.48,19.52-6.7,39.56,1.27,58.47,8.65,20.53,24.5,28.24,45.86,23.83,8.44-1.75,10.55-8.62,12.84-15.5,1.36-4.12,4.31-4.93,7.93-2.12h0Z" style="fill:#01455e;"></path>
  <path d="m454.46,135.35c7.18-11.75,17.98-17.7,30.59-20.15,15.91-3.09,31.59-1.61,46.59,4.96,1.7.75,2.8,1.68,2.68,4.02-.27,5.65-.1,11.32-.08,16.99,0,2-.12,4.15-2.31,4.81-2.49.75-4.54-.35-5.66-2.78-.74-1.61-1.58-3.21-2.01-4.91-2.81-10.85-10.5-12.45-18.13-13.09-19.43-1.64-33.7,10.5-39.89,27.46-3.86,10.57-5.64,21.56-4.87,32.69,1.08,15.73,4.14,31,16.28,42.6,9.89,9.45,28.01,12.02,38.75,6.58,4.17-2.12,6.68-5.3,7.82-9.7.7-2.71,1.54-5.27,3.85-7.13,1.17-.94,2.2-2.36,3.81-1.31,1.18.78,2.41,1.69,2.39,3.51-.07,6.67-.17,13.34.06,19.99.07,2.19-1.52,2.65-2.6,3.02-8.4,2.92-16.61,6.53-25.84,6.22-8.99-.31-17.87.15-26.74-2.86-15.07-5.12-24.99-15.15-29.78-29.85-7.6-23.31-7.43-46.88-.16-70.35,1.16-3.75,3.04-7.11,5.28-10.72h-.03Z" style="fill:#01455e;"></path>
  <path d="m1450.23,162.08c0-10.99-.15-21.48.09-31.96.07-3.42-1.12-5.16-4.26-6.05-1.69-.49-3.27-1.37-4.93-1.99-2.32-.87-1.96-2.81-1.86-4.59.11-1.89,1.43-2.22,3.1-2.45,11.31-1.55,22.62-1.67,33.91.09,3.32.51,4,2.99,1.76,5.61-1.52,1.78-3.31,3.14-5.79,3.35-3.55.3-5.03,2.39-5.03,5.84.02,34.46.03,68.92-.03,103.39,0,2.12.64,3.36,2.69,4.07,2.28.78,4.55,1.66,6.67,2.79,1.82.96,2.89,2.49,2.74,4.85-.16,2.46-1.55,2.79-3.52,3.28-1.05.26-2.08.77-3.25.77-8.82,0-17.65.2-26.46-.11-3.11-.11-7.22.16-6.92-5.33.18-3.42,2.4-4.07,4.77-4.52,4.92-.92,6.58-3.26,6.49-8.62-.4-22.63-.17-45.28-.17-68.42h0Z" style="fill:#01455e;"></path>
  <path d="m1766.16,318c1.85,8.13,3.64,15.82,5.57,24.06,1.57-7.84,3.25-15.13,4.38-22.51.37-2.44,1.33-2.52,3.14-2.49,3.15.07,6.31.02,9.85.02-3.58,12.98-7.17,25.66-10.52,38.41-.6,2.26-1.58,2.61-3.66,2.65-9.38.17-9.12.16-12.02-8.55-1.36-4.06-1.56-8.58-4.28-12.28-1.51,6.1-2.88,12.07-4.5,17.98-.46,1.65-1.41,2.83-3.81,2.9-9.3.23-9.42.43-12.1-8.46-2.98-9.86-5.64-19.82-8.59-29.68-.66-2.22-.36-3.16,2.04-2.97.17.01.33.01.5,0,6.01-.31,9.69,2.49,11.06,8.38,1.19,5.11,2.44,10.21,4.43,15.17,1.53-6.11,3.46-12.15,4.44-18.34.69-4.35,2.42-5.91,6.63-5.24,2.43.39,4.97-.5,7.44.95h0Z" style="fill:#01455e;"></path>
  <path d="m1040.19,356.82c-3.34,2.08-6.84.97-10.24,1.23-2.19.17-1.7-1.58-1.7-2.8-.03-11.82,0-23.65-.04-35.47-.01-1.74.29-2.48,2.36-2.79,6.12-.94,10.76.7,13.45,6.52,2.51,5.45,6.44,9.98,10.21,16.15,0-6.97.13-12.82-.06-18.66-.09-2.84.36-4.09,3.7-4.02,7.36.15,7.36-.07,7.36,7.28,0,10.16-.07,20.32.05,30.48.03,2.49-.61,3.15-3.24,3.47-6.1.75-9.73-1.43-12.39-6.99-2.31-4.85-5.78-9.15-9.43-14.75,0,7.42,0,13.65-.03,20.35h0Z" style="fill:#01455e;"></path>
  <path d="m619.89,354.85c4.1-11.78,7.94-23.23,11.77-34.68.78-2.32,2.24-3.13,4.8-3.16,10.07-.14,10.09-.25,13.27,9.09,3.21,9.45,6.15,19,9.69,28.33,1.19,3.14.8,3.84-2.3,3.67-1.83-.1-3.67-.14-5.49.01-2.69.22-4.85-.12-5.13-3.42-.16-1.89-.92-2.86-3.09-2.66-2.48.22-4.99.12-7.48.03-1.69-.06-2.61.19-2.87,2.27-.36,2.87-2.02,4.44-5.35,3.82-2.09-.39-4.32-.11-6.48-.06-2.44.05-2.24-1.29-1.35-3.24h0Z" style="fill:#01455e;"></path>
  <path d="m1162.14,235.08c0,11.33,0,22.16-.01,33,0,2.16.4,4.39-3.08,4.37-3.51-.02-3-2.32-3-4.43V109.04c0-2.14-.45-4.37,3.05-4.35s3.04,2.27,3.04,4.41c.01,41.82.01,83.65.01,125.98h-.01Z" style="fill:#888;"></path>
  <path d="m1268.24,348.55c-.13-2.18-.2-3.73,2.42-3.51,2.48.2,4.99.07,7.49.03,1.22-.02,2.64.15,2.62,1.5-.06,3.85,2.77,2.13,4.46,2.48,1.47.3,2.02-.47,2.03-1.97.02-2.21-.29-3.66-3.03-4.14-2.81-.49-5.48-1.84-8.19-2.85-3.79-1.4-7.26-3.34-7.74-7.79-.56-5.08.09-9.46,5.46-12.51,7.92-4.5,17.68-3.83,23.21,2.52,1.2,1.37,2.09,2.87,2.27,4.74.23,2.57.12,4.64-3.49,4.08-1.95-.3-3.99-.09-5.98-.04-1.82.04-3.33-.28-3.54-2.49-.2-2.19-1.65-2.65-3.52-2.51-1.56.12-2.35.98-2.48,2.54-.16,1.94.75,2.81,2.5,3.68,3.35,1.66,7.02,2.24,10.46,3.61,8.29,3.28,9.58,13.36,1.3,19.69-7.89,6.04-22.23,3.97-26.25-7.06h0Z" style="fill:#01455e;"></path>
  <path d="m1140.22,355.94c0,2.68-1.68,2.11-2.88,2.12-6.33.04-12.66-.06-18.99.06-2.27.05-3.2-.44-3.18-2.98.13-11.65.12-23.32.01-34.98-.02-2.32.55-3.2,3.03-3.13,6.32.16,12.67.26,18.98-.02,4.14-.19,2.98,2.53,3,4.59.02,2.08,1.06,4.96-3.03,4.52-2.31-.24-4.68.11-6.99-.08-2.8-.23-4.05.28-4.09,3.65-.05,3.72,1.88,3.51,4.3,3.4,1.17-.06,2.36.15,3.5-.04,4.22-.69,5.89.64,5.5,5.24-.25,2.98-.76,4.26-3.91,3.83-1.8-.24-3.67.08-5.49-.07-2.51-.21-3.85.14-3.88,3.32-.03,3.22,1,4.15,3.97,3.74,1.31-.18,2.7.17,3.99-.07,5.39-.99,7.07,1.45,6.16,6.9h0Z" style="fill:#01455e;"></path>
  <path d="m1219.49,325.42c-2.24,4.53-3.96,8.94-6.38,12.92-3.01,4.95-4.56,10.06-3.87,15.81.34,2.79-.25,4.1-3.62,4.03-7.39-.15-7.54.08-7.33-7.22.11-4.05-.69-7.64-2.71-11.19-3.26-5.76-5.64-11.97-9.27-17.57-2.47-3.81-1.6-5.07,2.92-5.12,8.07-.09,8.01-.07,11.07,8.03.98,2.62,2.35,5.09,3.82,8.19,1.84-4.52,3.71-8.59,5.15-12.81.93-2.72,2.35-3.97,5.21-3.42.48.09,1.01-.06,1.49.02,2.36.37,5.88-1.32,6.85.83,1.07,2.38-1.38,5.03-3.33,7.5h0Z" style="fill:#01455e;"></path>
  <path d="m713.28,356.82c-.04-8.96-.23-17.44.04-25.9.12-3.77-.74-5.62-4.78-4.84-4.27.82-5.8-.72-5.45-5.23.23-3,.79-3.94,3.91-3.85,8.3.23,16.62.31,24.92-.02,3.85-.15,3.45,2,3.3,4.32-.14,2.18,1.23,5.45-3.23,4.8-.98-.14-2.01.11-2.98-.04-3.1-.51-3.93.72-3.84,3.8.23,8.13-.07,16.29.15,24.42.08,3.04-.68,4.34-3.82,3.81-2.7-.45-5.58.81-8.21-1.27h0Z" style="fill:#01455e;"></path>
  <path d="m1485.23,340.09c0-1.83.02-3.16,0-4.49-.07-2.97.85-6.59-.52-8.72s-5.22-.74-7.96-.74c-3.98,0-2.4-2.87-2.42-4.58-.01-1.72-1.51-4.57,2.45-4.52,9.3.12,18.61.12,27.91.01,3.97-.05,2.44,2.81,2.44,4.53s1.54,4.57-2.43,4.56c-2.74,0-6.59-1.4-7.96.75-1.37,2.14-.48,5.75-.5,8.73-.03,6.31-.15,12.63.05,18.93.09,2.82-.74,3.92-3.58,3.56-1.47-.18-3-.17-4.48,0-2.43.27-3.13-.71-3.05-3.07.17-4.82.05-9.64.05-14.95h0Z" style="fill:#01455e;"></path>
  <path d="m799.28,327.35c-.04,9.28-.17,18.09.03,26.9.06,2.97-.57,4.38-3.78,3.86-1.3-.2-2.67-.16-3.98,0-2.58.32-3.44-.58-3.37-3.27.18-7.31.06-14.62.06-21.93,0-6.78,0-6.99-6.69-6.74-3.45.12-4.42-.76-4.46-4.31-.04-3.88.97-5.03,4.91-4.88,8.3.33,16.62.33,24.92,0,3.86-.15,3.44,2,3.3,4.32-.13,2.19,1.22,5.19-3.24,4.89-2.5-.18-5.25-1-7.7,1.16h0Z" style="fill:#01455e;"></path>
  <path d="m1608.23,332.08c0,2.5-.03,4.49.01,6.48.05,3.31-.99,7.37.55,9.7,1.53,2.3,5.85.73,8.93.76,3.98.03,2.39,2.88,2.41,4.59.02,1.72,1.5,4.59-2.47,4.51-6.31-.14-12.63-.1-18.94-.01-1.98.04-2.53-.7-2.52-2.59.06-11.97.06-23.93,0-35.9-.01-1.92.61-2.44,2.53-2.6,9.51-.79,9.5-.87,9.5,8.58v6.48h0Z" style="fill:#01455e;"></path>
  <path d="m570.07,287.59c-27.29.56-54.29.86-81.27-.35-4.62-.21-9.26-.16-14.61-.22-.91-.16-1.1-.34-.88-.7,31.93-.22,63.46-.27,95.7-.23,1.22.4,1.41.79,1.05,1.5h.01Z" style="fill:#a4a4a4;"></path>
  <path d="m1914.23,286.73c-32.54,1.25-64.79,1.54-97.79,1.24-1.23-.46-1.42-.87-1.02-1.6,32.48-.27,64.63-.27,97.53-.29,1.02.11,1.3.24,1.28.65h0Z" style="fill:#a5a5a5;"></path>
  <path d="m1379.5,290.31c4.26-1.72,8.92-.83,13.53-.89,10.46-.13,20.93.02,31.84.24-.07.56-.58,1.27-1.09,1.26-14.66-.02-29.33.63-44.28-.61Z" style="fill:#e8e8e8;"></path>
  <path d="m964.36,290.13c14.59-1.23,29.39-.72,44.54-.36-.43,1.33-1.61,1.28-2.77,1.28-13.24,0-26.49,0-39.73-.04-.61,0-1.22-.38-2.04-.88Z" style="fill:#e8e8e8;"></path>
  <path d="m1914.51,287.35c-.29-.3-.34-.73-.39-.94,8.31-.21,16.67-.21,25.03-.21-8.04,2.3-16.18,2.19-24.64,1.15Z" style="fill:#e5e5e5;"></path>
  <path d="m472.92,286.14c.48.07.38.48.35.69-8.01,2.35-15.94,1.24-23.87-.75,7.68,0,15.36,0,23.52.06Z" style="fill:#e4e4e4;"></path>
  <path d="m674.36,289.13c4.24-1.18,8.73-.74,13.55-.36-4.16,2.2-8.75,1.41-13.55.36Z" style="fill:#e8e8e8;"></path>
  <path d="m1700.49,289.3c3.75-1.54,7.87-.77,12.39-.63-3.62,2.5-7.89,1.25-12.39.63Z" style="fill:#e8e8e8;"></path>
  <path d="m565.57,285.92c.18.19.12.41.13.97.06.33.03.29.02.26-.32.09-.64.19-1.23-.11.1-.64.47-.87,1.08-1.12h0Z" style="fill:#e8e8e8;"></path>
  <path d="m564.08,287c.4-.35.68-.33,1.29-.09-.14,1.15-.74,1.09-1.29.09Z" style="fill:#a4a4a4;"></path>
  <path d="m1296.49,177.54c2.25-2.44,4.66-4.74,6.69-7.34,5.42-6.94,5.19-15.16,5.09-23.39-.14-11.88-6.55-19.78-16.02-25.7-10.92-6.83-23.54-5.79-35.57-6.87-9.26-.82-18.66-.34-27.98-.06-3.39.1-8.3-.35-9.11,3.8-.7,3.56,3.68,4.9,6.62,6.03,4,1.53,5.14,4.07,5.12,8.31-.18,31.15-.2,62.31-.02,93.47.03,6.66.53,13.02-8.28,14.33-.3.05-.6.29-.84.51-1.29,1.2-2.78,2.49-2.41,4.37.36,1.81,1.54,2.87,3.7,3.34,1.58.34,3.13.73,4.75.74,6.17.01,12.33,0,19,0h0c13.55.16,26.62.26,39.49-2.08,9.49-1.74,17.95-5.78,23.53-14.19,13.08-19.69,6.98-44.15-13.76-55.27Zm-48.26-12.55h0c0-11.79.11-23.1-.07-34.41-.05-3.52,1.17-4.64,4.63-4.57,7.52.16,14.93.7,22.16,2.99,8.22,2.6,11.57,8.74,13.42,16.63,1.1,4.7.45,9.1-.68,13.38-2.86,10.77-9.91,14.1-20.05,15-4.46.4-9.01-.26-13.46.16-4.99.47-6.67-1.51-5.97-6.2.12-.81.02-1.66.02-2.98Zm26.33,71.04c-7.31.26-14.64-.06-21.96.1-3.17.07-4.46-.89-4.43-4.24.14-13.97.07-27.95.05-41.92-.01-1.97.12-3.91,2.68-3.85,10.38.28,20.95-1.47,31.1,1.4,10.16,2.87,16.68,7.76,16.23,24.53h0c1.1,16.12-9.93,23.49-23.67,23.98Z" style="fill:#01455e;"></path>
  <path d="m1422.53,240.08c-3.91-1.54-7.68-3.22-9.98-7.19-8.43-14.54-16.96-29.03-25.53-43.49-1.68-2.84.27-3.08,2.16-3.3,7.13-.82,12.79-4.59,17.77-9.32,13.98-13.27,16.6-39.36-1.12-53.48h0c-6.69-4.58-13.83-7.3-21.4-8.11-15.86-1.68-31.83-1.1-47.76-1.07-1.24.01-2.51.96-3.72.87-2.76-.21-3.17,1.68-3.71,3.57-.66,2.29,1.28,3.05,2.63,3.39,8.26,2.12,9.7,7.5,9.56,15.44-.51,29.16-.39,58.33-.07,87.49.08,7.39.14,13.7-9.05,15.28-2.01.34-3.31,2.07-3.08,4.46.24,2.49,1.85,3.55,4.04,4,1.12.22,2.26.43,3.4.44,8.33.04,16.66-.09,24.99.1,2.09.04,3.98-.53,5.66-1.26,2.73-1.18,4.26-3.06,1.33-6.03-2.08-2.1-4.47-3.11-7.17-3.82-1.97-.51-3.35-1.28-3.32-3.91.15-14,.06-28,.1-41.99,0-1.05-.52-2.31.96-3.02,3.32-1.58,11.12.48,12.94,3.62,9.12,15.63,18.28,31.23,27.24,46.96,5.21,9.16,12.22,11.86,22.61,8.55,1.9-.61,3.91-1.34,3.98-3.05.08-2.08-1.01-4.17-3.46-5.13Zm-60.63-62.96c-2.05-.13-3.66-.42-3.67-3.4,0-14.45.16-28.44-.1-42.41-.08-4.29,1.34-5.44,5.44-5.32,7.38.22,14.66.77,21.81,2.68,7.59,2.03,12.33,6.89,14.33,14.39,2.67,10.02,1.8,19.28-5.99,27.04-3.78,3.77-8.84,5.32-13.59,5.68-6.05.46-12.09,1.73-18.23,1.34Z" style="fill:#01455e;"></path>
  <path d="m1930.18,143.29c-5.19-12.53-13.46-21.87-26.88-26.34-12.26-4.09-24.72-4-36.91-1.58-10.06,2-18.76,7.35-25.32,16.05-9.85,13.07-11.6,28.33-12.72,43.7-.93,12.79.48,25.55,3.9,37.97,3.77,13.7,10.96,24.54,24.23,31.16,10.7,5.35,21.89,5.14,33.14,4.72,9.17-.33,17.91-2.7,25.55-8.88h0c3.07-2.69,5.81-5.22,8.18-8.26,8.44-10.82,11.55-23.72,12.59-36.68,1.4-17.47,1.15-35.17-5.76-51.86Zm-11.69,48.03c-.91,8.71-2.72,16.89-6.23,24.8-8.22,18.51-30.72,29.04-49.62,12.96-9.27-7.88-13.68-18.04-15.41-29.71-.94-6.31-2.34-12.63-1.92-19,.8-12.31,1.83-24.65,8.07-35.75,6.31-11.23,15.89-18.29,28.67-19.29,7.08-.55,13.88,2.61,19.44,7.52,4.85,4.27,8.64,9.36,11.72,15.42h0c5.37,14.17,6.82,28.27,5.28,43.05Z" style="fill:#01455e;"></path>
  <path d="m897.06,333.67h0c-.8-2.39-1.13-4.55-2.17-6.29-5.62-9.45-17.72-13.23-27.66-8.8-9.48,4.22-15.07,16.17-11.49,26.34,3.28,9.3,16.27,18.41,29.28,12.17,9.59-4.6,13.09-12.7,12.04-23.42Zm-13.05,10.99c-2.32,3.54-7.4,4.49-13.26,2.24h-.01c-6.53-7.34-4.58-16.73,3.45-19.38,3.31-1.09,5.79.31,8.01,2.11,3.53,2.88,4.35,11.15,1.81,15.03Z" style="fill:#01455e;"></path>
  <path d="m979.17,356.07c-2.25-3.9-4.52-7.82-7.09-11.52-1.15-1.66-2.26-2.07.44-3.69,3.93-2.35,7.02-5.94,6.71-11.61h0c-1.25-6.81-5.52-9.7-11.56-11.28-6.09-1.59-12.17-.34-18.21-.92-2.71-.27-3.31.83-3.28,3.36.13,9.81.05,19.62.05,29.44,0,8.59,0,8.45,8.8,8.31,2.73-.04,3.4-.91,3.25-3.43-.2-3.35-.05-6.72-.05-11.19,1.08,1.89,1.62,2.64,1.98,3.48,3.3,7.61,7.63,13.53,17.38,11.18.54-.13,1.31.79,2.07-.08.83-.96-.21-1.56-.49-2.05Zm-17.93-21.98c-.48-.08-.98-.02-1.92-.06h0c-1.35-.81-1.26-1.91-1.04-2.79.48-1.9-1.95-5.38,2.71-5.18,2.7.11,5.85.26,6.04,3.42.21,3.33-2.12,5.23-5.79,4.61Z" style="fill:#01455e;"></path>
  <path d="m642.76,342.48c-1.88.47-3.84.57-6.29.68.59-1.71,1.21-3.08,1.52-4.51.33-1.54.71-3,1.76-4.11.98,2.52,1.95,5.03,3.01,7.94h0Z" style="fill:#fff;"></path>
  <path d="m1699.65,355.82c-4.51-12.56-8.74-25.21-13.37-38.16h0c-3.78-.4-7.26-.48-10.74-.58-1.92-.07-2.75.72-3.4,2.68-3.5,10.36-7.31,20.62-10.88,30.96-.83,2.41-3.11,5.3-1.66,7.21.89,1.18,4.67.27,7.15.12,1.98-.11,4.83,1.03,5.37-2.03,1.14-6.37,6.01-3.26,9.35-3.9,3.02-.58,5.49-.01,5.84,3.87.17,1.85,1.74,2.14,3.37,2.1,2.32-.05,4.71-.31,6.97.08,2.49.43,3,.44,2-2.35Zm-17.2-14.14h0c-1.44,2.58-3.66.86-6.03,1.64,1.14-3.58,2.13-6.66,3.31-10.37.96,3.15,1.75,5.76,2.72,8.73h0Z" style="fill:#01455e;"></path>
  <path d="m1420.95,324.42c-1.67-4.89-5.13-7.34-10.39-7.35-2.74-.01-5.75-.68-6.6,3.67h0c-4.46,12.75-8.67,25.16-12.98,37.83,1.61-.21,2.66-.43,3.73-.47,4.32-.17,9.5,1.6,10.66-5.2.22-1.32,1.64-.77,2.53-.79,2.49-.08,4.99.03,7.48-.05,1.6-.05,3.12.08,3.29,2.02.37,4.28,3.32,4.11,6.41,4.03,2.35-.07,4.72-.27,7.38.64-3.95-11.8-7.72-23.07-11.51-34.33Zm-10.41,18.66h0c-.93-.24-2.23.5-1.7-1.08.95-2.86,1.84-5.74,2.88-8.99,1.14,3.51,2.16,6.65,3.26,10.07h-4.44Z" style="fill:#01455e;"></path>
</svg>
