<svg width="200" height="110" viewBox="0 0 200 110" fill="none" xmlns="http://www.w3.org/2000/svg">
<path fill-rule="evenodd" clip-rule="evenodd" d="M100.039 68.5194C118.96 68.5194 134.299 53.1808 134.299 34.2597C134.299 15.3386 118.96 0 100.039 0C81.1179 0 65.7793 15.3386 65.7793 34.2597C65.7793 53.1808 81.1179 68.5194 100.039 68.5194ZM83.7888 17.125C83.789 22.7896 87.4175 27.3776 91.8724 30.2623C96.1183 33.0116 101.154 30.1635 105.464 27.515C110.91 24.1677 117.977 23.8284 123.891 27.2432C126.143 28.5435 128.006 30.2621 129.441 32.2441C129.861 32.824 130.853 32.5485 130.796 31.8349C130.02 22.0626 124.612 12.8248 115.48 7.5525C112.351 5.7459 112.045 6.12082 111.397 6.91569C110.418 8.11675 108.658 10.2766 95.1946 7.31798C91.0324 6.40332 86.3457 7.40947 84.857 11.4025C84.1862 13.2017 83.7891 15.1666 83.7888 17.125ZM93.342 56.9187C98.2476 54.0863 100.407 48.6499 100.677 43.3495C100.935 38.2978 95.9511 35.3607 91.5027 32.9528C85.8805 29.9097 82.0534 23.9596 82.0534 17.13C82.0534 14.5294 82.6105 12.0569 83.6095 9.82323C83.9018 9.16975 83.167 8.44805 82.5774 8.85398C74.5027 14.4129 69.2065 23.7153 69.2065 34.2599C69.2065 37.8731 69.684 37.9502 70.6963 38.1138C72.2259 38.361 74.9765 38.8055 79.146 51.9445C80.435 56.0064 83.6497 59.5622 87.8521 58.8549C89.7457 58.5362 91.6459 57.8977 93.342 56.9187ZM107.605 29.1845C112.33 26.7688 118.118 25.9204 123.024 28.7526C124.72 29.732 126.223 31.0584 127.445 32.5389C130.159 35.8247 128.687 40.3866 125.814 43.5338C116.52 53.7142 117.51 56.3186 118.061 57.7668C118.425 58.7253 118.597 59.1774 115.468 60.984C106.336 66.2562 95.6322 66.3208 86.7807 62.1074C86.1343 61.7997 86.392 60.8026 87.104 60.7289C89.5379 60.4773 91.9577 59.7234 94.2099 58.4231C100.124 55.0084 103.364 48.7189 103.188 42.3284C103.049 37.2721 103.101 31.4869 107.605 29.1845Z" fill="url(#paint0_linear_2959_2333)"/>
<path d="M17.2669 106.479C17.2669 107.274 16.9791 107.959 16.4035 108.535C15.8554 109.083 15.1839 109.357 14.3891 109.357H2.87781C2.08299 109.357 1.3978 109.083 0.822233 108.535C0.274078 107.959 0 107.274 0 106.479V92.0902C0 91.2954 0.274078 90.6239 0.822233 90.0757C1.3978 89.5002 2.08299 89.2124 2.87781 89.2124H14.3891C15.1839 89.2124 15.8554 89.5002 16.4035 90.0757C16.9791 90.6239 17.2669 91.2954 17.2669 92.0902V94.968H13.978V92.0902H3.28893V106.479H13.978V103.601H17.2669V106.479Z" fill="#1F1F1F"/>
<path d="M39.8959 106.479C39.8959 107.274 39.6082 107.959 39.0326 108.535C38.4844 109.083 37.813 109.357 37.0181 109.357H28.3847C27.5899 109.357 26.9047 109.083 26.3291 108.535C25.7809 107.959 25.5069 107.274 25.5069 106.479V97.8458C25.5069 97.051 25.7809 96.3795 26.3291 95.8314C26.9047 95.2558 27.5899 94.968 28.3847 94.968H37.0181C37.813 94.968 38.4844 95.2558 39.0326 95.8314C39.6082 96.3795 39.8959 97.051 39.8959 97.8458V106.479ZM37.0181 106.89V97.4347H28.3847V106.89H37.0181Z" fill="#1F1F1F"/>
<path d="M60.2558 94.968L57.748 97.4347H50.8002V100.724H56.5558C57.3506 100.724 58.0221 101.011 58.5703 101.587C59.1458 102.135 59.4336 102.807 59.4336 103.601V106.479C59.4336 107.274 59.1458 107.959 58.5703 108.535C58.0221 109.083 57.3506 109.357 56.5558 109.357H47.9223V106.89H56.5558V103.19H50.8002C50.0053 103.19 49.3201 102.916 48.7446 102.368C48.1964 101.793 47.9223 101.107 47.9223 100.313V97.8458C47.9223 97.051 48.1964 96.3795 48.7446 95.8314C49.3201 95.2558 50.0053 94.968 50.8002 94.968H60.2558Z" fill="#1F1F1F"/>
<path d="M91.6918 109.357H88.8139V97.4347H81.0027V109.357H78.1249V97.4347H70.3137V109.357H67.4359V94.968H70.3137V97.0236L72.3693 94.968H78.1249C79.7968 94.968 80.7424 95.6669 80.9616 97.0647L83.0583 94.968H88.8139C89.6088 94.968 90.2803 95.2558 90.8284 95.8314C91.404 96.3795 91.6918 97.051 91.6918 97.8458V109.357Z" fill="#1F1F1F"/>
<path d="M127.273 89.2124L122.75 109.357H117.2L113.295 94.598H112.884L108.978 109.357H103.428L98.9056 89.2124H102.606L105.895 106.562H106.717L111.445 89.2124H114.734L119.461 106.562H120.284L123.573 89.2124H127.273Z" fill="#1F1F1F"/>
<path d="M148.23 109.357H145.352V107.26L142.885 109.357H136.719C135.924 109.357 135.239 109.083 134.663 108.535C134.115 107.959 133.841 107.274 133.841 106.479V103.601C133.841 102.807 134.115 102.135 134.663 101.587C135.239 101.011 135.924 100.724 136.719 100.724H144.941L142.474 103.149H136.719V106.89H145.352V97.4347H133.841L136.308 94.968H145.352C146.147 94.968 146.818 95.2558 147.367 95.8314C147.942 96.3795 148.23 97.051 148.23 97.8458V109.357Z" fill="#1F1F1F"/>
<path d="M168.564 94.968L166.056 97.4347H159.108V100.724H164.864C165.659 100.724 166.33 101.011 166.878 101.587C167.454 102.135 167.742 102.807 167.742 103.601V106.479C167.742 107.274 167.454 107.959 166.878 108.535C166.33 109.083 165.659 109.357 164.864 109.357H156.231V106.89H164.864V103.19H159.108C158.314 103.19 157.628 102.916 157.053 102.368C156.505 101.793 156.231 101.107 156.231 100.313V97.8458C156.231 97.051 156.505 96.3795 157.053 95.8314C157.628 95.2558 158.314 94.968 159.108 94.968H168.564Z" fill="#1F1F1F"/>
<path d="M200 109.357H197.122V97.4347H189.311V109.357H186.433V97.4347H178.622V109.357H175.744V94.968H178.622V97.0236L180.678 94.968H186.433C188.105 94.968 189.051 95.6669 189.27 97.0647L191.367 94.968H197.122C197.917 94.968 198.589 95.2558 199.137 95.8314C199.712 96.3795 200 97.051 200 97.8458V109.357Z" fill="#1F1F1F"/>
<defs>
<linearGradient id="paint0_linear_2959_2333" x1="78.5239" y1="2.87795" x2="122.376" y2="65.3676" gradientUnits="userSpaceOnUse">
<stop stop-color="#FCECB2"/>
<stop offset="0.260417" stop-color="#FF8B89"/>
<stop offset="0.520833" stop-color="#FC8ADC"/>
<stop offset="0.755208" stop-color="#7954FF"/>
<stop offset="1" stop-color="#70BCFF"/>
</linearGradient>
</defs>
</svg>
