<svg xmlns="http://www.w3.org/2000/svg" version="1.1" xmlns:xlink="http://www.w3.org/1999/xlink" xmlns:svgjs="http://svgjs.dev/svgjs" width="2000" height="1247" viewBox="0 0 2000 1247"><g transform="matrix(1,0,0,1,-1.2121212121212466,210.22886324786327)"><svg viewBox="0 0 396 247" data-background-color="#6936f5" preserveAspectRatio="xMidYMid meet" height="1247" width="2000" xmlns="http://www.w3.org/2000/svg" xmlns:xlink="http://www.w3.org/1999/xlink"><g id="tight-bounds" transform="matrix(1,0,0,1,0.2400000000000091,-0.09999999999999432)"><svg viewBox="0 0 395.52 247.2" height="247.2" width="395.52"><g><svg></svg></g><g><svg viewBox="0 0 395.52 247.2" height="247.2" width="395.52"><g transform="matrix(1,0,0,1,75.54432,70.36422301330974)"><svg viewBox="0 0 244.43135999999998 106.47155397338051" height="106.47155397338051" width="244.43135999999998"><g><svg viewBox="0 0 244.43136 106.47155397338052" height="106.47155397338051" width="244.43135999999998"><g transform="matrix(1,0,0,1,0,77.05663886124236)"><svg viewBox="0 0 244.43136 29.41491511213816" height="29.41491511213816" width="244.43136"><g id="textblocktransform"><svg viewBox="0 0 244.43136 29.41491511213816" height="29.41491511213816" width="244.43136" id="textblock"><g><svg viewBox="0 0 244.43136 15.864999661361326" height="15.864999661361326" width="244.43136"><g transform="matrix(1,0,0,1,0,0)"><svg width="244.43136" viewBox="4 -28.75 442.9200134277344 28.75" height="15.864999661361326" data-palette-color="#ffffff"><path d="M4-3.4L4-25.3 9.85-28.75 20.2-28.75 20.2-22.85 10.5-22.85 10.5-5.65 20-5.65 20 0 9.85 0 4-3.4ZM32.15-19.45L38.65-19.45 38.65-25.3 32.8-28.75 22.45-28.75 22.45-22.85 32.15-22.85 32.15-19.45ZM38.65-3.4L38.65-17.2 22.45-17.2 22.45-11.5 32.15-11.5 32.15-5.65 22.65-5.65 22.65 0 32.8 0 38.65-3.4ZM47.65-28.75L47.65-28.75 63.65-28.75 63.65-22.85 53.95-22.85 53.95-17.2 63.65-17.2 63.65-11.5 53.95-11.5 53.95-5.65 63.45-5.65 63.45 0 47.65 0 47.65-28.75ZM66.1-5.65L66.1-5.65 66.1 0 82.1 0 82.1-5.65 66.1-5.65ZM82.1-22.85L82.1-22.85 82.1-28.75 65.9-28.75 65.9-22.85 82.1-22.85ZM74-11.5L74-11.5 74-17.2 65.9-17.2 65.9-11.5 74-11.5ZM88.6 0L88.6-28.75 94.3-28.75 104.6-19.05 104.6-11.5 94.9-20.85 94.9 0 88.6 0ZM106.85-17.2L116.75-8.1 116.75-28.75 123.05-28.75 123.05 0 117.15 0 106.85-9.9 106.85-17.2ZM162.99-28.75L162.99-3.4 157.34 0 146.99 0 146.99-5.65 156.69-5.65 156.69-28.75 162.99-28.75ZM128.54-9.1L135.04-9.1 135.04-5.65 144.54-5.65 144.54 0 134.39 0 128.54-3.4 128.54-9.1ZM171.49-28.75L171.49-28.75 177.79-28.75 177.79-5.85 187.49-5.85 187.49 0 177.19 0 171.49-3.4 171.49-28.75ZM205.94-28.75L205.94-28.75 199.64-28.75 199.64-5.85 189.94-5.85 189.94 0 200.29 0 205.94-3.4 205.94-28.75ZM245.89-28.75L245.89-23.1 231.49-23.1 231.49 0 224.59 0 224.59-23.1 211.44-23.1 211.44-28.75 245.89-28.75ZM250.88-14.75L250.88-25.3 256.58-28.75 266.88-28.75 266.88-22.85 256.99-22.85 256.99-17.2 266.88-17.2 266.88-11.35 256.58-11.35 250.88-14.75ZM285.33-3.4L285.33-13.75 279.44-17.2 269.13-17.2 269.13-11.35 279.03-11.35 279.03-5.65 269.33-5.65 269.33 0 279.44 0 285.33-3.4ZM250.88-9.1L257.19-9.1 257.19-5.65 266.88-5.65 266.88 0 256.74 0 250.88-3.4 250.88-9.1ZM279.03-19.45L285.33-19.45 285.33-25.3 279.44-28.75 269.13-28.75 269.13-22.85 279.03-22.85 279.03-19.45ZM292.83-28.75L292.83-28.75 299.13-28.75 299.13-5.85 308.83-5.85 308.83 0 298.53 0 292.83-3.4 292.83-28.75ZM327.28-28.75L327.28-28.75 320.98-28.75 320.98-5.85 311.28-5.85 311.28 0 321.63 0 327.28-3.4 327.28-28.75ZM332.18-25.3L332.18-25.3 337.88-28.75 348.18-28.75 348.18-23.1 338.48-23.1 338.48-17.2 348.18-17.2 348.18-11.5 338.48-11.5 338.48 0 332.18 0 332.18-25.3ZM366.63-25.3L366.63-25.3 360.73-28.75 350.43-28.75 350.43-23.1 360.33-23.1 360.33-17.2 350.43-17.2 350.43-11.5 360.33-11.5 360.33 0 366.63 0 366.63-25.3ZM405.98-28.75L405.98-23.1 391.58-23.1 391.58 0 384.68 0 384.68-23.1 371.53-23.1 371.53-28.75 405.98-28.75ZM412.47-28.75L412.47-28.75 418.77-28.75 418.77-5.85 428.27-5.85 428.27 0 412.47 0 412.47-28.75ZM430.92-5.85L430.92-5.85 430.92 0 446.92 0 446.92-5.85 430.92-5.85Z" opacity="1" transform="matrix(1,0,0,1,0,0)" fill="#000000" class="wordmark-text-0" data-fill-palette-color="primary" id="text-0"></path></svg></g></svg></g><g transform="matrix(1,0,0,1,0,19.61034532141686)"><svg viewBox="0 0 244.43136 9.804569790721299" height="9.804569790721299" width="244.43136"><g transform="matrix(1,0,0,1,0,0)"><svg width="244.43136" viewBox="3.9000000953674316 -35.5 1146.7999267578125 46" height="9.804569790721299" data-palette-color="#ffffff"><path d="M3.9 0L3.9-35 20.6-35 20.6-32.35 6.7-32.35 6.7-20.65 15.25-20.65 14.1-17.9 6.7-17.9 6.7 0 3.9 0ZM78.62-32.15Q77.97-32.15 77.45-32.68 76.92-33.2 76.92-33.85L76.92-33.85Q76.92-34.5 77.42-35 77.92-35.5 78.62-35.5L78.62-35.5Q79.32-35.5 79.8-35.02 80.27-34.55 80.27-33.85L80.27-33.85Q80.27-33.15 79.77-32.65 79.27-32.15 78.62-32.15L78.62-32.15ZM77.17 0L77.17-25.05 79.97-25.05 79.97 0 77.17 0ZM142.95 0L142.95-35 145.75-35 145.75 0 142.95 0ZM236.87 0L236.87-17.15Q236.87-20.15 235.29-21.55 233.72-22.95 231.22-22.95L231.22-22.95Q229.27-22.95 226.87-22.1L226.87-22.1 225.02-21.2Q225.87-19.5 225.87-17.3L225.87-17.3 225.87 0 223.12 0 223.12-17.15Q223.12-20.2 221.54-21.58 219.97-22.95 217.42-22.95L217.42-22.95Q215.87-22.95 214.22-22.48 212.57-22 211.22-21.25L211.22-21.25 211.22 0 208.42 0 208.42-25.05 211.22-25.05 210.97-23.45Q214.27-25.4 217.72-25.4L217.72-25.4Q219.52-25.4 221.09-24.8 222.67-24.2 223.77-23.05L223.77-23.05Q224.47-23.45 225.87-24.15L225.87-24.15Q228.82-25.5 231.57-25.5L231.57-25.5Q235.12-25.5 237.37-23.33 239.62-21.15 239.62-17.3L239.62-17.3 239.62 0 236.87 0ZM317.14 0Q311.74 0.55 309.34 0.55L309.34 0.55Q304.09 0.55 300.99-1.4 297.89-3.35 297.89-8.45L297.89-8.45 297.89-12.6Q297.89-17.55 301.34-19.25L301.34-19.25Q302.99-20.1 305.54-20.1L305.54-20.1Q307.89-20.1 310.29-19.33 312.69-18.55 314.34-17.3L314.34-17.3Q314.34-20.05 312.74-21.68 311.14-23.3 306.59-23.3L306.59-23.3 306.74-25.45Q311.54-25.45 313.82-23.93 316.09-22.4 316.62-20.3 317.14-18.2 317.14-14.9L317.14-14.9 317.14 0ZM314.34-15.15Q312.29-16.1 309.97-16.8 307.64-17.5 305.69-17.5L305.69-17.5Q300.64-17.5 300.64-12.45L300.64-12.45 300.64-8.1Q300.64-4.85 302.89-3.38 305.14-1.9 309.29-1.9L309.29-1.9Q311.44-1.9 314.34-2.3L314.34-2.3 314.34-15.15ZM392.07 0L382.47-15.85 379.87-13.6 379.87 0 377.07 0 377.07-35 379.87-35 379.87-16.75 389.87-26 391.87-24.05 384.47-17.6Q387.87-11.95 395.42 0L395.42 0 392.07 0ZM455.79-32.15Q455.14-32.15 454.61-32.68 454.09-33.2 454.09-33.85L454.09-33.85Q454.09-34.5 454.59-35 455.09-35.5 455.79-35.5L455.79-35.5Q456.49-35.5 456.96-35.02 457.44-34.55 457.44-33.85L457.44-33.85Q457.44-33.15 456.94-32.65 456.44-32.15 455.79-32.15L455.79-32.15ZM454.34 0L454.34-25.05 457.14-25.05 457.14 0 454.34 0ZM535.11 0L535.11-17.15Q535.11-20.2 533.34-21.58 531.56-22.95 528.76-22.95L528.76-22.95Q527.06-22.95 525.31-22.48 523.56-22 522.21-21.25L522.21-21.25 522.21 0 519.41 0 519.41-25.05 522.21-25.05 522.01-23.35Q523.21-24.4 525.06-24.93 526.91-25.45 528.91-25.45L528.91-25.45Q531.66-25.45 533.61-24.55L533.61-24.55Q535.61-23.65 536.74-21.85 537.86-20.05 537.86-17.3L537.86-17.3 537.86 0 535.11 0ZM610.58 8.35Q613.88 7.1 613.88 3.15L613.88 3.15 613.88-3.05Q611.78 0.6 607.13 0.6L607.13 0.6Q602.73 0.6 600.28-1.8 597.83-4.2 597.83-8.8L597.83-8.8 597.83-16.25Q597.83-20.65 600.41-23.08 602.98-25.5 607.33-25.5L607.33-25.5Q611.98-25.5 614.08-22.15L614.08-22.15 613.88-25.05 616.68-25.05 616.68 3.2Q616.68 6.2 615.43 7.9 614.18 9.6 611.33 10.5L611.33 10.5 610.58 8.35ZM613.88-16.8Q613.88-19.9 611.88-21.43 609.88-22.95 607.13-22.95L607.13-22.95Q604.48-22.95 602.56-21.33 600.63-19.7 600.63-16L600.63-16 600.63-8.35Q600.63-5.2 602.41-3.6 604.18-2 607.13-2L607.13-2Q609.93-2 611.91-3.73 613.88-5.45 613.88-8.65L613.88-8.65 613.88-16.8ZM764.68 0L760.68-12.25 749.28-12.25 745.38 0 742.43 0 753.63-35 756.28-35 767.68 0 764.68 0ZM754.93-30.65L750.08-15 759.93-15 754.93-30.65ZM837.55 8.35Q840.85 7.1 840.85 3.15L840.85 3.15 840.85-3.05Q838.75 0.6 834.1 0.6L834.1 0.6Q829.7 0.6 827.25-1.8 824.8-4.2 824.8-8.8L824.8-8.8 824.8-16.25Q824.8-20.65 827.38-23.08 829.95-25.5 834.3-25.5L834.3-25.5Q838.95-25.5 841.05-22.15L841.05-22.15 840.85-25.05 843.65-25.05 843.65 3.2Q843.65 6.2 842.4 7.9 841.15 9.6 838.3 10.5L838.3 10.5 837.55 8.35ZM840.85-16.8Q840.85-19.9 838.85-21.43 836.85-22.95 834.1-22.95L834.1-22.95Q831.45-22.95 829.53-21.33 827.6-19.7 827.6-16L827.6-16 827.6-8.35Q827.6-5.2 829.38-3.6 831.15-2 834.1-2L834.1-2Q836.9-2 838.88-3.73 840.85-5.45 840.85-8.65L840.85-8.65 840.85-16.8ZM917.93-1.75Q916.13-0.6 913.83 0 911.53 0.6 909.23 0.6L909.23 0.6Q905.53 0.6 903.35-1.23 901.18-3.05 901.18-6.7L901.18-6.7 901.18-16.95Q901.18-21 903.7-23.25 906.23-25.5 910.38-25.5L910.38-25.5Q914.53-25.5 916.85-23.28 919.18-21.05 919.18-17.1L919.18-17.1 919.18-10.6 903.98-9.75 903.98-6.7Q903.98-4.3 905.53-3.1 907.08-1.9 909.58-1.9L909.58-1.9Q913.08-1.9 916.83-3.9L916.83-3.9 917.93-1.75ZM916.38-17.45Q916.38-20.55 914.43-21.83 912.48-23.1 910.33-23.1L910.33-23.1Q907.58-23.1 905.78-21.6 903.98-20.1 903.98-16.9L903.98-16.9 903.98-12.5 916.38-13.1 916.38-17.45ZM994.8 0L994.8-17.15Q994.8-20.2 993.02-21.58 991.25-22.95 988.45-22.95L988.45-22.95Q986.75-22.95 985-22.48 983.25-22 981.9-21.25L981.9-21.25 981.9 0 979.1 0 979.1-25.05 981.9-25.05 981.7-23.35Q982.9-24.4 984.75-24.93 986.6-25.45 988.6-25.45L988.6-25.45Q991.35-25.45 993.3-24.55L993.3-24.55Q995.3-23.65 996.42-21.85 997.55-20.05 997.55-17.3L997.55-17.3 997.55 0 994.8 0ZM1073.57-0.3Q1070.47 0.5 1067.57 0.5L1067.57 0.5Q1064.87 0.5 1063.07-0.1L1063.07-0.1Q1060.12-1.1 1058.8-3.18 1057.47-5.25 1057.47-9L1057.47-9 1057.47-15.4Q1057.47-20.35 1060.07-22.93 1062.67-25.5 1066.77-25.5L1066.77-25.5Q1070.02-25.5 1073.47-23.9L1073.47-23.9 1072.67-21.85Q1069.82-23 1067.17-23L1067.17-23Q1064.07-23 1062.17-21.23 1060.27-19.45 1060.27-15.7L1060.27-15.7 1060.27-8.45Q1060.27-5 1062.35-3.45 1064.42-1.9 1067.87-1.9L1067.87-1.9Q1070.12-1.9 1072.97-2.55L1072.97-2.55 1073.57-0.3ZM1143 8.35Q1146.35 7.1 1146.35 3.15L1146.35 3.15 1146.35-2.45Q1145.4-0.85 1143.5-0.13 1141.6 0.6 1139.4 0.6L1139.4 0.6Q1135 0.6 1132.62-1.78 1130.25-4.15 1130.25-8.8L1130.25-8.8 1130.25-25.05 1132.95-25.05 1132.95-8.3Q1132.95-5.1 1134.7-3.53 1136.45-1.95 1139.4-1.95L1139.4-1.95Q1142.5-1.95 1144.4-3.5 1146.3-5.05 1146.3-8.3L1146.3-8.3 1146.3-18.15Q1146.3-20.55 1146.45-21.73 1146.6-22.9 1147.37-23.93 1148.15-24.95 1149.95-25.5L1149.95-25.5 1150.7-23.6Q1149-22.85 1149-20.1L1149-20.1 1149 3.05Q1149 6.1 1147.8 7.85 1146.6 9.6 1143.75 10.5L1143.75 10.5 1143 8.35Z" opacity="1" transform="matrix(1,0,0,1,0,0)" fill="#000000" class="slogan-text-1" data-fill-palette-color="secondary" id="text-1"></path></svg></g></svg></g></svg></g></svg></g><g transform="matrix(1,0,0,1,87.43270622943436,0)"><svg viewBox="0 0 69.5659475411313 69.5659475411313" height="69.5659475411313" width="69.5659475411313"><g><svg></svg></g><g id="icon-0"><svg viewBox="0 0 69.5659475411313 69.5659475411313" height="69.5659475411313" width="69.5659475411313"><g><path d="M0 34.783c0-19.21 15.573-34.783 34.783-34.783 19.21 0 34.783 15.573 34.783 34.783 0 19.21-15.573 34.783-34.783 34.783-19.21 0-34.783-15.573-34.783-34.783zM34.783 68.135c18.42 0 33.352-14.932 33.352-33.352 0-18.42-14.932-33.352-33.352-33.352-18.42 0-33.352 14.932-33.352 33.352 0 18.42 14.932 33.352 33.352 33.352z" data-fill-palette-color="accent" fill="#000000" stroke="transparent"></path><ellipse rx="34.43514403285999" ry="34.43514403285999" cx="34.78297377056565" cy="34.78297377056565" fill="#000000" stroke="transparent" stroke-width="0" fill-opacity="1" data-fill-palette-color="accent"></ellipse></g><g transform="matrix(1,0,0,1,20.18849061456156,16.540097736247073)"><svg viewBox="0 0 29.18896631200818 36.48575206863715" height="36.48575206863715" width="29.18896631200818"><g><svg version="1.1" xmlns="http://www.w3.org/2000/svg" xmlns:xlink="http://www.w3.org/1999/xlink" x="0" y="0" viewBox="0 0 80.0009994506836 100" enable-background="new 0 0 80.001 100" xml:space="preserve" width="29.18896631200818" height="36.48575206863715" class="icon-s-0" data-fill-palette-color="quaternary" id="s-0"><path d="M64.001 40v2H64h-7v-8h-3.714C60.104 31.608 65 25.134 65 17.5 65 7.835 57.165 0 47.5 0c-6.378 0-11.941 3.423-15 8.52C29.441 3.423 23.878 0 17.5 0 7.835 0 0 7.835 0 17.5 0 25.134 4.896 31.608 11.714 34H8v11H2v6h6v11h20v2h-5v4h3.14l-22.6 32h4.908l22.588-32h3.104l-22.6 32h4.908l22.588-32H42v-4h-5v-2h20v-8h7 0.001v2h16V40H64.001zM23.286 34c3.882-1.361 7.129-4.046 9.214-7.52 2.085 3.474 5.332 6.158 9.214 7.52H23.286z" fill="#ffffff" data-fill-palette-color="quaternary"></path></svg></g></svg></g></svg></g></svg></g><g></g></svg></g></svg></g><g><path d="M89.641 66.619A122.216 122.216 0 0 1 305.879 66.619L304.449 66.619A120.785 120.785 0 0 0 91.071 66.619L89.641 66.619M89.641 180.581A122.216 122.216 0 0 0 305.879 180.581L304.449 180.581A120.785 120.785 0 0 1 91.071 180.581L89.641 180.581" fill="#000000" stroke="transparent" data-fill-palette-color="tertiary"></path></g></svg></g><defs></defs></svg><rect width="395.52" height="247.2" fill="none" stroke="none" visibility="hidden"></rect></g></svg></g></svg>