<svg width="20" height="20" viewBox="0 0 20 20" fill="none" xmlns="http://www.w3.org/2000/svg">
<path d="M10.001 0C4.47598 0 0.000978208 4.475 0.000978208 10C-0.00022585 12.0992 0.659577 14.1454 1.88679 15.8484C3.114 17.5515 4.84631 18.8249 6.83798 19.488C7.33798 19.575 7.52598 19.275 7.52598 19.012C7.52598 18.775 7.51298 17.988 7.51298 17.15C5.00098 17.613 4.35098 16.538 4.15098 15.975C4.03798 15.687 3.55098 14.8 3.12598 14.562C2.77598 14.375 2.27598 13.912 3.11298 13.9C3.90098 13.887 4.46298 14.625 4.65098 14.925C5.55098 16.437 6.98798 16.012 7.56298 15.75C7.65098 15.1 7.91298 14.663 8.20098 14.413C5.97598 14.163 3.65098 13.3 3.65098 9.475C3.65098 8.387 4.03798 7.488 4.67598 6.787C4.57598 6.537 4.22598 5.512 4.77598 4.137C4.77598 4.137 5.61298 3.875 7.52598 5.163C8.34004 4.93706 9.18114 4.82334 10.026 4.825C10.876 4.825 11.726 4.937 12.526 5.162C14.439 3.862 15.276 4.138 15.276 4.138C15.826 5.513 15.476 6.538 15.376 6.788C16.013 7.488 16.401 8.375 16.401 9.475C16.401 13.313 14.064 14.163 11.838 14.413C12.201 14.725 12.514 15.325 12.514 16.263C12.514 17.6 12.501 18.675 12.501 19.013C12.501 19.275 12.689 19.587 13.189 19.487C15.1738 18.8166 16.8985 17.5408 18.1203 15.8389C19.3421 14.1371 19.9995 12.095 20 10C20 4.475 15.525 0 9.99998 0H10.001Z" fill="black"/>
</svg>
