<svg xmlns="http://www.w3.org/2000/svg" version="1.1" xmlns:xlink="http://www.w3.org/1999/xlink" xmlns:svgjs="http://svgjs.dev/svgjs" width="2000" height="506" viewBox="0 0 2000 506"><g transform="matrix(1,0,0,1,0.213333333333253,0.8974842105263576)"><svg viewBox="0 0 375 95" data-background-color="#ffffff" preserveAspectRatio="xMidYMid meet" height="506" width="2000" xmlns="http://www.w3.org/2000/svg" xmlns:xlink="http://www.w3.org/1999/xlink"><g id="tight-bounds" transform="matrix(1,0,0,1,-0.03976036071776434,-0.16834899902346478)"><svg viewBox="0 0 375.07952880859375 95.33650207519531" height="95.33650207519531" width="375.07952880859375"><g><svg></svg></g><g><svg viewBox="0 0 375.07952880859375 95.33650207519531" height="95.33650207519531" width="375.07952880859375"><g transform="matrix(1,0,0,1,-10.220239639282227,-78.86415100097656)"><path xmlns="http://www.w3.org/2000/svg" d="M10.22 168.336v-89.472h375.08v89.472l-21.693 0 0-2.547h19.146v-84.378h-369.986v84.378l23.936 0 0 2.547z" fill="#010c80" fill-rule="nonzero" stroke="none" stroke-width="1" stroke-linecap="butt" stroke-linejoin="miter" stroke-miterlimit="10" stroke-dasharray="" stroke-dashoffset="0" font-family="none" font-weight="none" font-size="none" text-anchor="none" style="mix-blend-mode: normal" data-fill-palette-color="tertiary"></path><g><path xmlns="http://www.w3.org/2000/svg" d="M55.525 166.017v2.468h-7.751v-2.468zM56.618 160.49v2.453h-9.825v11.068h-2.449v-12.285c0-0.17 0.031-0.331 0.093-0.483 0.062-0.149 0.148-0.281 0.258-0.394 0.111-0.113 0.242-0.202 0.394-0.266 0.149-0.062 0.312-0.093 0.487-0.093v0zM97.583 160.49v13.521h-2.448v-13.521zM149.185 160.49v2.453h-5.403v11.068h-2.453v-11.068h-5.411v-2.453zM201.014 160.49v12.475c0 0.175-0.033 0.339-0.1 0.49-0.067 0.152-0.154 0.282-0.263 0.39-0.111 0.111-0.242 0.197-0.394 0.259-0.149 0.064-0.309 0.097-0.479 0.097v0c-0.152 0-0.305-0.028-0.459-0.085-0.152-0.057-0.288-0.148-0.41-0.275v0l-8.956-9.354v9.524h-2.452v-12.474c0-0.252 0.071-0.48 0.212-0.684 0.142-0.203 0.322-0.355 0.541-0.456v0c0.234-0.095 0.474-0.12 0.718-0.073 0.245 0.049 0.454 0.164 0.63 0.344v0l8.96 9.346v-9.524zM251.492 166.017v2.468h-7.74v-2.468zM252.597 171.559v2.452h-8.845c-0.34 0-0.712-0.059-1.116-0.177-0.402-0.121-0.774-0.318-1.116-0.591-0.342-0.273-0.628-0.628-0.857-1.066-0.229-0.438-0.344-0.973-0.344-1.607v0-8.844c0-0.17 0.031-0.331 0.093-0.483 0.064-0.149 0.151-0.281 0.258-0.394 0.111-0.113 0.242-0.202 0.394-0.266 0.149-0.062 0.313-0.093 0.491-0.093v0h11.042v2.453h-9.826v7.627c0 0.319 0.085 0.564 0.255 0.734 0.167 0.17 0.415 0.255 0.742 0.255v0zM304.422 170.033v0c0 0.484-0.062 0.919-0.185 1.306-0.121 0.386-0.282 0.727-0.483 1.023-0.201 0.294-0.436 0.545-0.707 0.753-0.27 0.209-0.551 0.378-0.842 0.51-0.288 0.131-0.582 0.229-0.88 0.294-0.299 0.062-0.581 0.093-0.846 0.092v0h-9.454v-2.452h9.454c0.474 0 0.841-0.138 1.101-0.413 0.26-0.278 0.39-0.649 0.39-1.113v0c0-0.227-0.035-0.434-0.104-0.621-0.067-0.191-0.166-0.354-0.298-0.491-0.129-0.139-0.286-0.246-0.471-0.32-0.185-0.077-0.391-0.116-0.618-0.116v0h-5.635c-0.397 0-0.825-0.071-1.286-0.213-0.458-0.142-0.883-0.369-1.274-0.683-0.394-0.314-0.721-0.725-0.981-1.232-0.263-0.51-0.394-1.133-0.394-1.87v0c0-0.734 0.131-1.354 0.394-1.861 0.26-0.507 0.587-0.919 0.981-1.236 0.391-0.317 0.816-0.546 1.274-0.687 0.461-0.142 0.89-0.212 1.286-0.213v0h8.342v2.453h-8.342c-0.466 0-0.829 0.142-1.089 0.424-0.263 0.283-0.394 0.657-0.394 1.12v0c0 0.471 0.131 0.843 0.394 1.117 0.26 0.276 0.623 0.413 1.089 0.413v0h5.635 0.019c0.265 0.005 0.546 0.041 0.842 0.108 0.294 0.064 0.587 0.166 0.881 0.305 0.291 0.139 0.569 0.314 0.834 0.525 0.265 0.209 0.499 0.461 0.703 0.757 0.203 0.296 0.366 0.636 0.487 1.02 0.118 0.384 0.178 0.817 0.177 1.301zM355.966 170.033v0c0 0.484-0.061 0.919-0.182 1.306-0.124 0.386-0.286 0.727-0.486 1.023-0.201 0.294-0.436 0.545-0.707 0.753-0.27 0.209-0.551 0.378-0.842 0.51-0.288 0.131-0.582 0.229-0.88 0.294-0.299 0.062-0.579 0.093-0.842 0.092v0h-9.459v-2.452h9.459c0.471 0 0.837-0.138 1.096-0.413 0.26-0.278 0.39-0.649 0.39-1.113v0c0-0.227-0.033-0.434-0.1-0.621-0.07-0.191-0.169-0.354-0.297-0.491-0.129-0.139-0.286-0.246-0.471-0.32-0.185-0.077-0.391-0.116-0.618-0.116v0h-5.639c-0.397 0-0.824-0.071-1.282-0.213-0.461-0.142-0.887-0.369-1.279-0.683-0.394-0.314-0.721-0.725-0.981-1.232-0.26-0.51-0.39-1.133-0.39-1.87v0c0-0.734 0.13-1.354 0.39-1.861 0.26-0.507 0.587-0.919 0.981-1.236 0.391-0.317 0.817-0.546 1.279-0.687 0.458-0.142 0.886-0.212 1.282-0.213v0h8.342v2.453h-8.342c-0.466 0-0.829 0.142-1.089 0.424-0.263 0.283-0.394 0.657-0.394 1.12v0c0 0.471 0.131 0.843 0.394 1.117 0.26 0.276 0.623 0.413 1.089 0.413v0h5.639 0.019c0.263 0.005 0.542 0.041 0.838 0.108 0.296 0.064 0.59 0.166 0.881 0.305 0.294 0.139 0.572 0.314 0.834 0.525 0.265 0.209 0.499 0.461 0.703 0.757 0.203 0.296 0.366 0.636 0.486 1.02 0.118 0.384 0.178 0.817 0.178 1.301z" fill="#ff4136" fill-rule="nonzero" stroke="none" stroke-width="1" stroke-linecap="butt" stroke-linejoin="miter" stroke-miterlimit="10" stroke-dasharray="" stroke-dashoffset="0" font-family="none" font-weight="none" font-size="none" text-anchor="none" style="mix-blend-mode: normal" data-fill-palette-color="secondary"></path></g></g><g transform="matrix(1,0,0,1,29.331764404296877,30.801369439266804)"><svg viewBox="0 0 316.416 33.733763196661705" height="33.733763196661705" width="316.416"><g><svg viewBox="0 0 316.416 33.733763196661705" height="33.733763196661705" width="316.416"><g><svg viewBox="0 0 316.416 33.733763196661705" height="33.733763196661705" width="316.416"><g><svg viewBox="0 0 316.416 33.733763196661705" height="33.733763196661705" width="316.416"><g id="textblocktransform"><svg viewBox="0 0 316.416 33.733763196661705" height="33.733763196661705" width="316.416" id="textblock"><g><svg viewBox="0 0 316.416 33.733763196661705" height="33.733763196661705" width="316.416"><g transform="matrix(1,0,0,1,0,0)"><svg width="316.416" viewBox="-0.7799999713897705 -39.51045608520508 404.2900085449219 44.00045394897461" height="33.733763196661705" data-palette-color="#010c80"><path d="M38.23-17.5L38.23-3.2Q38.23-2.51 37.99-1.93 37.74-1.34 37.32-0.92 36.89-0.49 36.3-0.24 35.72 0 35.03 0L35.03 0 12.13 0Q11.25 0 10.24-0.21 9.23-0.42 8.24-0.85 7.25-1.29 6.35-1.99 5.44-2.69 4.75-3.67 4.05-4.66 3.64-5.97 3.22-7.28 3.22-8.91L3.22-8.91 3.22-26.1Q3.22-26.98 3.43-27.99 3.64-29 4.08-29.99 4.52-30.98 5.22-31.88 5.93-32.79 6.92-33.48 7.91-34.18 9.2-34.59 10.5-35.01 12.13-35.01L12.13-35.01 37.94-35.01 37.94-28.66 12.13-28.66Q10.89-28.66 10.23-28 9.57-27.34 9.57-26.05L9.57-26.05 9.57-8.91Q9.57-7.69 10.24-7.02 10.91-6.35 12.13-6.35L12.13-6.35 31.88-6.35 31.88-14.31 14.99-14.31 14.99-20.7 35.03-20.7Q35.72-20.7 36.3-20.45 36.89-20.19 37.32-19.75 37.74-19.31 37.99-18.74 38.23-18.16 38.23-17.5L38.23-17.5ZM78.2-35.01L78.2-23.29Q78.2-21.12 77.65-19.41 77.1-17.7 76.19-16.39 75.29-15.09 74.08-14.16 72.87-13.23 71.58-12.63 70.29-12.04 68.96-11.77 67.62-11.5 66.45-11.5L66.45-11.5 63.89-11.5 63.89 0 57.49 0 57.49-11.5 54.95-11.5Q53.78-11.5 52.45-11.77 51.12-12.04 49.81-12.63 48.51-13.23 47.31-14.16 46.12-15.09 45.2-16.39 44.28-17.7 43.74-19.42 43.19-21.14 43.19-23.29L43.19-23.29 43.19-35.01 49.53-35.01 49.53-23.29Q49.53-22.05 49.92-21.06 50.31-20.07 51.02-19.36 51.73-18.65 52.74-18.27 53.76-17.9 55-17.9L55-17.9 66.45-17.9Q67.36-18.04 68.31-18.27 69.26-18.51 70.04-19.07 70.82-19.63 71.34-20.63 71.85-21.63 71.85-23.29L71.85-23.29 71.85-35.01 78.2-35.01ZM124.65-32.3L124.65 0 118.26 0 118.26-20.85 107-1.05Q106.59-0.29 105.84 0.1 105.1 0.49 104.24 0.49L104.24 0.49Q103.41 0.49 102.69 0.1 101.97-0.29 101.56-1.05L101.56-1.05 90.25-20.85 90.25 0 83.91 0 83.91-32.3Q83.91-33.4 84.55-34.25 85.2-35.11 86.25-35.4L86.25-35.4Q86.76-35.52 87.28-35.49 87.79-35.45 88.26-35.27 88.74-35.08 89.13-34.75 89.52-34.42 89.79-33.96L89.79-33.96 104.24-8.84 118.7-33.96Q119.26-34.89 120.25-35.28 121.24-35.67 122.31-35.4L122.31-35.4Q123.33-35.11 123.99-34.25 124.65-33.4 124.65-32.3L124.65-32.3ZM170.28-35.01L176.73-35.01 170.87-2.2Q170.67-1.22 169.99-0.51 169.3 0.2 168.33 0.39L168.33 0.39Q167.33 0.56 166.44 0.17 165.54-0.22 165.03-1.05L165.03-1.05 153.41-20.14 141.76-1.05Q141.35-0.34 140.63 0.05 139.91 0.44 139.08 0.44L139.08 0.44Q137.93 0.44 137.05-0.29 136.17-1.03 135.98-2.2L135.98-2.2 130.07-35.01 136.52-35.01 140.72-11.89 150.72-27.86Q151.14-28.56 151.86-28.96 152.58-29.35 153.41-29.35L153.41-29.35Q154.24-29.35 154.95-28.96 155.66-28.56 156.12-27.86L156.12-27.86 166.08-11.89 170.28-35.01ZM216.1-31.81L216.1 0 209.76 0 209.76-8.59 187.44-8.59 187.44 0 181.09 0 181.09-17.5Q181.09-21.34 182.41-24.56 183.73-27.78 186.07-30.1 188.42-32.42 191.62-33.72 194.81-35.01 198.6-35.01L198.6-35.01 212.91-35.01Q213.56-35.01 214.15-34.77 214.74-34.52 215.18-34.08 215.62-33.64 215.86-33.06 216.1-32.47 216.1-31.81L216.1-31.81ZM187.44-17.5L187.44-14.94 209.76-14.94 209.76-28.66 198.6-28.66Q198.31-28.66 197.37-28.58 196.43-28.49 195.19-28.15 193.96-27.81 192.59-27.1 191.23-26.39 190.08-25.15 188.93-23.9 188.19-22.03 187.44-20.17 187.44-17.5L187.44-17.5ZM258.46-27.29L258.46-23.24Q258.46-21.07 257.92-19.36 257.38-17.65 256.47-16.35 255.55-15.04 254.36-14.11 253.16-13.18 251.86-12.59 250.55-11.99 249.22-11.72 247.89-11.45 246.72-11.45L246.72-11.45 259.97 0 250.16 0 236.93-11.45 232.36-11.45 232.36-17.8 246.72-17.8Q247.91-17.9 248.9-18.3 249.89-18.7 250.61-19.38 251.33-20.07 251.72-21.03 252.11-22 252.11-23.24L252.11-23.24 252.11-27.25Q252.11-27.78 251.98-28.06 251.84-28.34 251.64-28.48 251.43-28.61 251.2-28.64 250.96-28.66 250.77-28.66L250.77-28.66 229.82-28.66 229.82 0 223.47 0 223.47-31.81Q223.47-32.47 223.72-33.06 223.96-33.64 224.39-34.08 224.82-34.52 225.4-34.77 225.99-35.01 226.67-35.01L226.67-35.01 250.77-35.01Q252.89-35.01 254.36-34.24 255.82-33.47 256.74-32.31 257.65-31.15 258.06-29.81 258.46-28.47 258.46-27.29L258.46-27.29ZM299.81-27.29L299.81-23.24Q299.81-21.07 299.28-19.36 298.74-17.65 297.82-16.35 296.91-15.04 295.71-14.11 294.52-13.18 293.21-12.59 291.9-11.99 290.57-11.72 289.24-11.45 288.07-11.45L288.07-11.45 301.33 0 291.51 0 278.28-11.45 273.72-11.45 273.72-17.8 288.07-17.8Q289.27-17.9 290.26-18.3 291.24-18.7 291.96-19.38 292.69-20.07 293.08-21.03 293.47-22 293.47-23.24L293.47-23.24 293.47-27.25Q293.47-27.78 293.33-28.06 293.2-28.34 292.99-28.48 292.78-28.61 292.55-28.64 292.32-28.66 292.12-28.66L292.12-28.66 271.18-28.66 271.18 0 264.83 0 264.83-31.81Q264.83-32.47 265.07-33.06 265.32-33.64 265.74-34.08 266.17-34.52 266.76-34.77 267.34-35.01 268.03-35.01L268.03-35.01 292.12-35.01Q294.25-35.01 295.71-34.24 297.18-33.47 298.09-32.31 299.01-31.15 299.41-29.81 299.81-28.47 299.81-27.29L299.81-27.29ZM312.58-35.01L312.58 0 306.23 0 306.23-35.01 312.58-35.01ZM356.74-20.85L356.74-14.16Q356.74-10.96 355.64-8.28 354.55-5.59 352.59-3.64 350.64-1.68 347.97-0.6 345.29 0.49 342.14 0.49L342.14 0.49 333.55 0.49Q330.4 0.49 327.71-0.6 325.03-1.68 323.08-3.64 321.12-5.59 320.01-8.28 318.9-10.96 318.9-14.16L318.9-14.16 318.9-20.85Q318.9-24.02 320.01-26.72 321.12-29.42 323.08-31.36 325.03-33.3 327.71-34.4 330.4-35.5 333.55-35.5L333.55-35.5 342.14-35.5Q345.29-35.5 347.97-34.4 350.64-33.3 352.59-31.36 354.55-29.42 355.64-26.72 356.74-24.02 356.74-20.85L356.74-20.85ZM350.4-14.16L350.4-20.85Q350.4-22.73 349.8-24.26 349.2-25.78 348.11-26.87 347.03-27.95 345.5-28.55 343.97-29.15 342.14-29.15L342.14-29.15 333.55-29.15Q331.69-29.15 330.17-28.55 328.64-27.95 327.54-26.87 326.44-25.78 325.85-24.26 325.25-22.73 325.25-20.85L325.25-20.85 325.25-14.16Q325.25-12.28 325.85-10.75 326.44-9.23 327.54-8.14 328.64-7.06 330.17-6.46 331.69-5.86 333.55-5.86L333.55-5.86 342.09-5.86Q343.95-5.86 345.48-6.46 347-7.06 348.1-8.14 349.2-9.23 349.8-10.75 350.4-12.28 350.4-14.16L350.4-14.16ZM398-27.29L398-23.24Q398-21.07 397.46-19.36 396.93-17.65 396.01-16.35 395.09-15.04 393.9-14.11 392.7-13.18 391.4-12.59 390.09-11.99 388.76-11.72 387.43-11.45 386.26-11.45L386.26-11.45 399.51 0 389.7 0 376.47-11.45 371.9-11.45 371.9-17.8 386.26-17.8Q387.45-17.9 388.44-18.3 389.43-18.7 390.15-19.38 390.87-20.07 391.26-21.03 391.65-22 391.65-23.24L391.65-23.24 391.65-27.25Q391.65-27.78 391.52-28.06 391.38-28.34 391.18-28.48 390.97-28.61 390.74-28.64 390.5-28.66 390.31-28.66L390.31-28.66 369.36-28.66 369.36 0 363.01 0 363.01-31.81Q363.01-32.47 363.26-33.06 363.5-33.64 363.93-34.08 364.36-34.52 364.94-34.77 365.53-35.01 366.21-35.01L366.21-35.01 390.31-35.01Q392.43-35.01 393.9-34.24 395.36-33.47 396.28-32.31 397.19-31.15 397.6-29.81 398-28.47 398-27.29L398-27.29Z" opacity="1" transform="matrix(1,0,0,1,0,0)" fill="#010c80" class="wordmark-text-0" data-fill-palette-color="primary" id="text-0"></path></svg></g></svg></g></svg></g></svg></g></svg></g></svg></g></svg></g></svg></g><defs></defs></svg><rect width="375.07952880859375" height="95.33650207519531" fill="none" stroke="none" visibility="hidden"></rect></g></svg></g></svg>