<svg width="181" height="269" viewBox="0 0 181 269" fill="none" xmlns="http://www.w3.org/2000/svg">
<path d="M87.9547 55.061L102.095 34.0454C105.772 28.581 110.137 24.2463 114.941 21.289C119.745 18.3317 124.894 16.8096 130.094 16.8096C135.294 16.8096 140.442 18.3317 145.246 21.289C150.05 24.2463 154.415 28.581 158.092 34.0454C161.769 39.5098 164.686 45.997 166.675 53.1366C168.665 60.2763 169.69 67.9285 169.69 75.6563C169.69 83.3842 168.665 91.0364 166.675 98.176C164.686 105.316 161.769 111.803 158.092 117.267L129.811 159.299C126.134 164.763 121.769 169.098 116.965 172.056C112.161 175.013 107.012 176.536 101.813 176.536C96.6126 176.536 91.4637 175.013 86.6597 172.056C81.8557 169.098 77.4907 164.763 73.8141 159.299C72.3162 156.907 71.5005 153.745 71.5385 150.478C71.5765 147.211 72.4651 144.093 74.0177 141.78C75.5743 139.472 77.6722 138.152 79.8704 138.095C82.0686 138.039 84.196 139.251 85.8053 141.477C87.9051 144.608 90.3998 147.091 93.1467 148.786C95.8935 150.481 98.8384 151.353 101.813 151.353C104.787 151.353 107.731 150.481 110.478 148.786C113.225 147.091 115.72 144.608 117.82 141.477L146.101 99.446C150.14 93.075 152.35 84.6161 152.262 75.8638C152.174 67.1115 149.796 58.7543 145.631 52.5648C141.466 46.3753 135.843 42.8405 129.954 42.7102C124.065 42.5798 118.373 45.8642 114.087 51.8666L99.9459 72.8823C98.3366 75.1084 96.2093 76.3206 94.0111 76.2642C91.8128 76.2077 89.715 74.887 88.1583 72.5796C86.6058 70.2662 85.7171 67.1483 85.6791 63.8814C85.6412 60.6144 86.4568 57.4528 87.9547 55.061ZM34.8991 217.134C36.9988 220.264 39.4936 222.748 42.2404 224.442C44.9873 226.137 47.9321 227.009 50.9063 227.009C53.8804 227.009 56.8252 226.137 59.5721 224.442C62.3189 222.748 64.8137 220.264 66.9134 217.134L81.0541 196.118C82.6634 193.892 84.7907 192.68 86.9889 192.736C89.1872 192.792 91.2851 194.113 92.8417 196.42C94.3943 198.734 95.2829 201.852 95.3209 205.119C95.3589 208.386 94.5432 211.547 93.0453 213.939L78.9047 234.955C75.2279 240.419 70.8629 244.754 66.0589 247.711C61.2549 250.668 56.106 252.191 50.9063 252.191C40.4048 252.191 30.3335 245.991 22.9078 234.955C15.4822 223.919 11.3105 208.951 11.3105 193.344C11.3105 177.737 15.4822 162.769 22.9078 151.733L51.1891 109.702C54.8657 104.237 59.2307 99.9019 64.0347 96.9444C68.8387 93.9868 73.9876 92.4646 79.1875 92.4646C84.3874 92.4646 89.5363 93.9868 94.3403 96.9444C99.1443 99.9019 103.509 104.237 107.186 109.702C108.684 112.093 109.499 115.255 109.462 118.522C109.424 121.789 108.535 124.907 106.982 127.22C105.426 129.528 103.328 130.848 101.13 130.905C98.9314 130.961 96.804 129.749 95.1947 127.523C93.095 124.393 90.6002 121.909 87.8533 120.214C85.1065 118.519 82.1616 117.647 79.1875 117.647C76.2134 117.647 73.2685 118.519 70.5217 120.214C67.7748 121.909 65.2801 124.393 63.1803 127.523L34.8991 169.554C32.7928 172.675 31.1216 176.382 29.9813 180.465C28.841 184.547 28.2541 188.924 28.2541 193.344C28.2541 197.764 28.841 202.141 29.9813 206.223C31.1216 210.305 32.7928 214.013 34.8991 217.134Z" fill="black"/>
</svg>
